<svg class="svg-icon" viewBox="0 0 1024 1024" version="1.1" xmlns="http://www.w3.org/2000/svg">
	<path d="M769.1 633.6c-46.4 0-87.6-22.8-112.8-57.7-7.9-10.9-24.2-10.9-32.1 0-25.3 35-66.4 57.7-112.8 57.7-46.5 0-87.7-22.9-113-58-7.9-11-24.3-11-32.2 0-25.3 35.1-66.5 58-113 58-8.3 0-16.5-0.7-24.4-2.1l48.4 264.2c1.7 9.4 9.9 16.3 19.5 16.3h430.2c9.6 0 17.8-6.8 19.5-16.3l48.5-264.5c-8.3 1.5-16.9 2.4-25.8 2.4z" fill="#FFFFFF" />
	<path d="M253.2 734.6c46.5 0 87.7-22.9 113-58 7.9-11 24.3-11 32.2 0 25.3 35.1 66.5 58 113 58 46.4 0 87.6-22.8 112.8-57.7 7.9-10.9 24.2-10.9 32.1 0 25.3 35 66.4 57.7 112.8 57.7 2.3 0 4.6-0.1 6.9-0.2l18.9-103.3c-8.4 1.6-17 2.4-25.8 2.4-46.4 0-87.6-22.8-112.8-57.7-7.9-10.9-24.2-10.9-32.1 0-25.3 35-66.4 57.7-112.8 57.7-46.5 0-87.7-22.9-113-58-7.9-11-24.3-11-32.2 0-25.3 35.1-66.5 58-113 58-8.3 0-16.5-0.7-24.4-2.1l18.9 103.1c1.8 0.1 3.6 0.1 5.5 0.1z" fill="#E5E5E5" />
	<path d="M623.2 848.9c-1.2 0-2.4-0.1-3.6-0.3-10.4-2-17.2-11.9-15.2-22.3l23-121.3c2-10.4 11.9-17.2 22.3-15.2s17.2 11.9 15.2 22.3L642 833.4c-1.7 9.1-9.8 15.5-18.8 15.5zM401.7 848.9c-9 0-17-6.4-18.7-15.6l-22.9-121.2c-2-10.4 4.9-20.3 15.2-22.3 10.4-2 20.3 4.9 22.3 15.2l22.9 121.2c2 10.4-4.9 20.3-15.2 22.3-1.2 0.3-2.4 0.4-3.6 0.4zM511.5 848.9c-10.5 0-19.1-8.5-19.1-19.1V708.6c0-10.5 8.5-19.1 19.1-19.1s19.1 8.5 19.1 19.1v121.2c0 10.6-8.5 19.1-19.1 19.1z" fill="#FF954D" />
	<path d="M830.6 368.4c-54-122.1-176.2-207.2-318.3-207.2-141.8 0-263.8 84.8-317.9 206.5-47.1 22.3-79.8 70.3-79.8 125.9 0 76.8 62.3 139.1 139.1 139.1 58.5 0 108.5-36.1 129.1-87.1 20.6 51.1 70.6 87.1 129.1 87.1 58.3 0 108.2-35.8 128.9-86.7 20.7 50.8 70.6 86.7 128.9 86.7 76.8 0 139.1-62.3 139.1-139.1 0.1-55-31.8-102.6-78.2-125.2z" fill="#FFA73E" />
	<path d="M830.6 368.4c-54-122.1-176.2-207.2-318.3-207.2-141.8 0-263.8 84.8-317.9 206.5-32.6 15.4-58.3 43.1-71 77.2 19.7 52.8 70.7 90.4 130.4 90.4 58.5 0 108.5-36.1 129.1-87.1 20.6 51.1 70.6 87.1 129.1 87.1 58.3 0 108.2-35.8 128.9-86.7 20.7 50.8 70.6 86.7 128.9 86.7 59.7 0 110.6-37.6 130.4-90.5-12.6-33.4-37.7-60.8-69.6-76.4z" fill="#FFCD5F" />
	<path d="M698.6 468c-7.9 0-14.3-6.4-14.3-14.3 0-44.9-19.3-87.8-52.9-117.7-5.9-5.3-6.4-14.3-1.2-20.2 5.3-5.9 14.3-6.4 20.2-1.2 39.7 35.3 62.5 86 62.5 139.1 0.1 7.9-6.4 14.3-14.3 14.3zM324.4 468c-7.9 0-14.3-6.4-14.3-14.3 0-53.1 22.8-103.8 62.5-139.1 5.9-5.3 15-4.7 20.2 1.2 5.3 5.9 4.7 15-1.2 20.2-33.6 29.9-52.9 72.8-52.9 117.7 0 7.9-6.4 14.3-14.3 14.3zM512.5 487.1c-7.9 0-14.3-6.4-14.3-14.3v-95.5c0-7.9 6.4-14.3 14.3-14.3s14.3 6.4 14.3 14.3v95.5c0 7.9-6.4 14.3-14.3 14.3z" fill="#FF6545" />
	<path d="M727.5 935H297.3c-18.8 0-34.9-13.4-38.3-31.9l-23.9-130.4c-1.9-10.4 5-20.3 15.3-22.2 10.4-1.9 20.3 5 22.2 15.3l23.9 130.4c0.1 0.4 0.4 0.6 0.7 0.6h430.2c0.4 0 0.7-0.3 0.7-0.6L772 656.6c-32.9 0.5-64.7-9.1-91.8-27.6-15.5-10.6-28.8-23.7-39.6-38.8-10.7 15.1-24.1 28.2-39.6 38.8-26.4 18.1-57.3 27.6-89.3 27.6-32.2 0-63.1-9.6-89.6-27.8-15.5-10.7-28.8-23.8-39.5-38.9-10.7 15.1-24 28.2-39.5 38.9-26.4 18.2-57.4 27.8-89.6 27.8-87.3 0-158.2-71-158.2-158.2 0-30.6 8.7-60.2 25.3-85.8 14.8-22.9 35.1-41.5 59-54.1 28.7-61.2 73.5-113.3 130.1-150.8 60.1-39.8 130-60.8 202.4-60.8 72.5 0 142.6 21.1 202.7 61 56.7 37.7 101.6 89.9 130.2 151.4 23.5 12.8 43.5 31.4 58 54.1 16.2 25.4 24.8 54.8 24.8 85 0 10.5-8.5 19.1-19.1 19.1s-19.1-8.5-19.1-19.1c0-46.3-25.9-87.7-67.6-108-4.1-2-7.3-5.3-9.1-9.4-52.7-119-170.7-195.9-300.8-195.9-129.8 0-247.7 76.6-300.5 195.2-1.9 4.2-5.2 7.5-9.3 9.5-41.8 19.8-68.8 62.4-68.8 108.6 0 66.2 53.9 120 120 120 49.2 0 93-29.5 111.4-75.2 2.9-7.2 9.9-12 17.7-12s14.8 4.7 17.7 12c18.4 45.7 62.1 75.2 111.4 75.2 49.1 0 92.7-29.4 111.2-74.8 2.9-7.2 9.9-11.9 17.7-11.9s14.8 4.7 17.7 11.9c18.5 45.4 62.2 74.8 111.2 74.8 7.2 0 14.5-0.6 21.6-1.9 1.1-0.3 2.3-0.4 3.5-0.5 8.9-0.4 16.9 5.5 19.2 14.2 0.8 2.8 0.8 5.8 0.3 8.6L765.7 903c-3.3 18.6-19.4 32-38.2 32z" fill="#3d4750" />
	<path d="M698.6 477.6c-10.5 0-19.1-8.5-19.1-19.1 0-43.6-18.7-85.2-51.3-114.1-7.9-7-8.6-19.1-1.6-27 7-7.9 19.1-8.6 27-1.6 40.7 36.2 64.1 88.2 64.1 142.7 0 10.5-8.5 19.1-19.1 19.1zM324.4 477.6c-10.5 0-19.1-8.5-19.1-19.1 0-54.4 23.3-106.4 64.1-142.7 7.9-7 19.9-6.3 27 1.6 7 7.9 6.3 19.9-1.6 27-32.6 29-51.3 70.6-51.3 114.1 0 10.5-8.5 19.1-19.1 19.1zM512.5 496.7c-10.5 0-19.1-8.5-19.1-19.1v-95.5c0-10.5 8.5-19.1 19.1-19.1s19.1 8.5 19.1 19.1v95.5c0 10.5-8.6 19.1-19.1 19.1z" fill="#FFFFFF" />
	<path d="M509.3 189.5m-89.5 0a89.5 89.5 0 1 0 179 0 89.5 89.5 0 1 0-179 0Z" fill="#FF954D" />
	<path d="M550.5 110c8.8 13.9 13.9 30.3 13.9 48 0 49.5-40.1 89.5-89.5 89.5-14.9 0-28.9-3.6-41.2-10 15.9 25 43.8 41.5 75.6 41.5 49.5 0 89.5-40.1 89.5-89.5 0-34.6-19.6-64.6-48.3-79.5z" fill="#FF6545" />
	<path d="M479.4 156.8m-14.3 0a14.3 14.3 0 1 0 28.6 0 14.3 14.3 0 1 0-28.6 0Z" fill="#FFFFFF" />
	<path d="M511.5 299c-57.9 0-105-47.1-105-105s47.1-105 105-105 105 47.1 105 105-47.1 105-105 105z m0-171.8c-36.8 0-66.8 30-66.8 66.8s30 66.8 66.8 66.8 66.8-30 66.8-66.8-29.9-66.8-66.8-66.8z" fill="#3d4750" />
</svg>