<svg class="svg-icon" viewBox="0 0 1024 1024" version="1.1" xmlns="http://www.w3.org/2000/svg">
	<path d="M263.507723 765.183726m-238.252559 0a238.252558 238.252558 0 1 0 476.505117 0 238.252558 238.252558 0 1 0-476.505117 0Z" fill="#FFFFFF" />
	<path d="M761.321006 706.133275m-238.252558 0a238.252558 238.252558 0 1 0 476.505117 0 238.252558 238.252558 0 1 0-476.505117 0Z" fill="#FFFFFF" />
	<path d="M252.15835 537.227072C168.793833 578.087624 111.232284 663.545033 111.232284 762.711585s57.589641 184.567776 140.926066 225.428329c83.392609-40.902691 140.940111-126.3601 140.940111-225.428329s-57.547502-184.623961-140.940111-225.484513z" fill="#FECD57" />
	<path d="M261.3446 524.669721a237.704754 237.704754 0 0 0-60.061782 7.95018C303.595731 559.265644 379.248855 652.013059 379.248855 762.711585s-75.653123 203.333571-177.966037 229.993361a237.887356 237.887356 0 1 0 60.061782-468.035225z" fill="#FFAC1F" />
	<path d="M754.283833 477.670956C670.933363 518.531508 613.38586 603.988917 613.38586 703.099284S670.933363 887.723245 754.283833 928.457381c83.406656-40.734136 140.954158-126.233684 140.954158-225.358097S837.690489 518.531508 754.283833 477.670956z" fill="#9BD37A" />
	<path d="M763.484129 465.099558a237.704754 237.704754 0 0 0-60.061781 7.95018c102.298867 26.687882 177.923898 119.393158 177.923898 230.049546s-75.610985 203.389756-177.909852 230.0355a237.887356 237.887356 0 1 0 60.061782-468.035226z" fill="#65A347" />
	<path d="M659.499712 46.689748H322.516035a23.344874 23.344874 0 1 1 0-46.689748h336.983677a23.344874 23.344874 0 1 1 0 46.689748z" fill="#3d4750" />
	<path d="M267.22998 539.755398a23.316781 23.316781 0 0 1-23.24655-21.715509C222.619078 213.643521 467.613838 18.82198 478.050204 10.675153a23.344874 23.344874 0 0 1 28.752682 36.801185c-2.373817 1.854106-235.836603 188.121478-216.31231 467.290774a23.330828 23.330828 0 0 1-21.631231 24.918054c-0.575896 0.042139-1.081562 0.070231-1.629365 0.070232z" fill="#3d4750" />
	<path d="M708.619462 488.458479a23.302735 23.302735 0 0 1-10.618968-2.570465c-99.166552-50.791254-146.586705-152.331623-168.906203-228.574689-29.230254-99.81268-28.949329-200.9738-10.394228-232.830704A23.344874 23.344874 0 0 1 559.040904 47.996049c-8.231105 14.046254-13.217525 100.318345 14.846891 196.198075 19.749033 67.422019 61.002881 156.910702 145.392773 200.131025a23.35892 23.35892 0 0 1-10.675153 44.13333zM261.3446 1023.971907C117.244081 1023.971907 0 906.755919 0 762.711585s117.244081-261.386738 261.3446-261.386738a260.909166 260.909166 0 0 1 84.010644 13.807468 23.344874 23.344874 0 1 1-15.001399 44.217607 214.289649 214.289649 0 0 0-69.009245-11.335327C142.976818 548.000549 46.689748 644.301665 46.689748 762.711585s96.301117 214.640805 214.654852 214.640806S475.999451 881.009136 475.999451 762.711585a212.67433 212.67433 0 0 0-42.925352-128.776055 23.35892 23.35892 0 0 1 37.334943-28.092508A259.125291 259.125291 0 0 1 522.689199 762.711585c0 144.044333-117.244081 261.260322-261.344599 261.260322z" fill="#3d4750" />
	<path d="M763.498176 964.429837c-144.05838 0-261.3446-117.230035-261.3446-261.330553S619.439796 441.754684 763.498176 441.754684a261.077721 261.077721 0 0 1 217.54838 116.485584 23.344874 23.344874 0 0 1-38.851939 25.915338 214.47225 214.47225 0 0 0-178.710488-95.697127c-118.367781 0-214.654852 96.28707-214.654851 214.640805s96.301117 214.640805 214.654851 214.640805 214.640805-96.28707 214.640806-214.640805a23.344874 23.344874 0 1 1 46.689748 0c0 144.100519-117.215989 261.330553-261.316507 261.330553z" fill="#3d4750" />
</svg>