<svg class="svg-icon" viewBox="0 0 1024 1024" version="1.1" xmlns="http://www.w3.org/2000/svg">
	<path d="M732 615.2C732 493.6 633.6 432 512 432s-220 61.6-220 183.2c0 96.8 62.4 178.4 148.8 208 9.6 3.2 18.4 7.2 27.2 12.8 27.2 18.4 44 48.8 44 83.2 0-33.6 16.8-64.8 44-83.2 8-5.6 17.6-9.6 27.2-12.8 86.4-29.6 148.8-111.2 148.8-208z" fill="#FFFFFF" />
	<path d="M512 432c-9.6 0-18.4 0.8-27.2 0.8 82.4 37.6 137.6 108.8 137.6 213.6 0 36-5.6 70.4-12 98.4-7.2 30.4 29.6 52.8 52 31.2 43.2-40 70.4-97.6 70.4-160.8C732 493.6 633.6 432 512 432z" fill="#CADBEA" />
	<path d="M512 432c-26.4 0-52 3.2-76 8.8-110.4 28-115.2 184-6.4 220 53.6 17.6 111.2 17.6 164.8 0l137.6-45.6C732 493.6 633.6 432 512 432z" fill="#FF5576" />
	<path d="M622.4 646.4v5.6l110.4-36.8c0-41.6-11.2-76-31.2-104-39.2-53.6-121.6-5.6-96 56 9.6 25.6 16.8 52.8 16.8 79.2z" fill="#C95065" />
	<path d="M512 943.2c-13.6 0-24-10.4-24-24 0-40.8 20.8-79.2 55.2-103.2 11.2-7.2 22.4-12 32.8-15.2 79.2-27.2 132-101.6 132-185.6C708 497.6 606.4 456 512 456s-196 41.6-196 159.2c0 84 53.6 158.4 132 185.6 9.6 3.2 21.6 8 32.8 15.2 11.2 7.2 13.6 22.4 6.4 33.6-7.2 11.2-22.4 13.6-33.6 6.4-6.4-4-14.4-7.2-21.6-9.6C333.6 812.8 267.2 720 267.2 616c0.8-126.4 96.8-208 244.8-208s244 81.6 244 207.2c0 104-66.4 196.8-164.8 230.4-7.2 2.4-15.2 5.6-21.6 9.6-20.8 14.4-33.6 38.4-33.6 63.2 0 13.6-10.4 24.8-24 24.8z" fill="#3d4750" />
	<path d="M714.4 332h-120v-120c0-66.4 53.6-120 120-120s120 53.6 120 120c-0.8 66.4-54.4 120-120 120zM352 392h160V232c0-88-72-160-160-160s-160 72-160 160 72 160 160 160z" fill="#52DDB2" />
	<path d="M512 416c-13.6 0-24-10.4-24-24V232c0-75.2-60.8-136-136-136s-136 60.8-136 136 60.8 136 136 136c13.6 0 24 10.4 24 24s-10.4 24-24 24c-101.6 0-184-82.4-184-184S250.4 48 352 48s184 82.4 184 184v160c0 13.6-10.4 24-24 24z" fill="#3d4750" />
	<path d="M512 455.2c-13.6 0-24-10.4-24-24 0-123.2 110.4-188.8 213.6-240 12-5.6 26.4-0.8 32 10.4 5.6 12 0.8 26.4-10.4 32C628 280.8 536 335.2 536 431.2c0 12.8-10.4 24-24 24z" fill="#3d4750" />
	<path d="M512 456c-13.6 0-24-10.4-24-24 0-120-64.8-151.2-143.2-177.6-12.8-4-19.2-17.6-15.2-30.4s17.6-19.2 30.4-15.2c65.6 22.4 176 59.2 176 223.2 0 13.6-10.4 24-24 24z" fill="#3d4750" />
	<path d="M520 400c-3.2 0-6.4-0.8-8.8-1.6-12-4.8-18.4-19.2-12.8-31.2 14.4-36 49.6-59.2 88-59.2h128c52.8 0 96-43.2 96-96s-43.2-96-96-96-96 43.2-96 96c0 13.6-10.4 24-24 24s-24-10.4-24-24c0-79.2 64.8-144 144-144s144 64.8 144 144-64.8 144-144 144h-128c-19.2 0-36.8 11.2-44 29.6-4 8.8-12.8 14.4-22.4 14.4z" fill="#3d4750" />
</svg>